<svg width="60" height="60" viewBox="0 0 60 60" fill="none" xmlns="http://www.w3.org/2000/svg">
<path d="M45 0C41.0231 0.00454899 37.2105 1.58636 34.3984 4.39842C31.5864 7.21048 30.0045 11.0231 30 15C30 15.9946 30.3951 16.9484 31.0983 17.6516C31.8016 18.3549 32.7554 18.75 33.75 18.75C34.7446 18.75 35.6984 18.3549 36.4017 17.6516C37.1049 16.9484 37.5 15.9946 37.5 15C37.5 13.0109 38.2902 11.1032 39.6967 9.6967C41.1032 8.29018 43.0109 7.5 45 7.5C46.9891 7.5 48.8968 8.29018 50.3033 9.6967C51.7098 11.1032 52.5 13.0109 52.5 15C52.5 18.2519 50.5884 20.2478 47.4463 23.1482C44.5386 25.825 41.25 28.8574 41.25 33.75C41.25 34.7446 41.6451 35.6984 42.3483 36.4016C43.0516 37.1049 44.0054 37.5 45 37.5C45.9946 37.5 46.9484 37.1049 47.6517 36.4016C48.3549 35.6984 48.75 34.7446 48.75 33.75C48.75 32.2229 50.1856 30.8203 52.5293 28.6597C55.6787 25.7519 60 21.7712 60 15C59.9955 11.0231 58.4136 7.21048 55.6016 4.39842C52.7895 1.58636 48.9769 0.00454899 45 0Z" fill="black"/>
<path d="M45 45C43.5166 45 42.0666 45.4399 40.8332 46.264C39.5999 47.0881 38.6386 48.2594 38.0709 49.6299C37.5032 51.0003 37.3547 52.5083 37.6441 53.9632C37.9335 55.418 38.6478 56.7544 39.6967 57.8033C40.7456 58.8522 42.082 59.5665 43.5368 59.8559C44.9917 60.1453 46.4997 59.9968 47.8701 59.4291C49.2406 58.8614 50.4119 57.9001 51.236 56.6668C52.0601 55.4334 52.5 53.9834 52.5 52.5C52.498 50.5115 51.7072 48.605 50.3011 47.1989C48.895 45.7928 46.9885 45.002 45 45Z" fill="black"/>
<path d="M30 33C28.6744 33.0015 27.4035 33.5288 26.4661 34.4661C25.5288 35.4035 25.0015 36.6744 25 38C25 38.3315 25.1317 38.6495 25.3661 38.8839C25.6005 39.1183 25.9185 39.25 26.25 39.25C26.5815 39.25 26.8995 39.1183 27.1339 38.8839C27.3683 38.6495 27.5 38.3315 27.5 38C27.5 37.337 27.7634 36.7011 28.2322 36.2322C28.7011 35.7634 29.337 35.5 30 35.5C30.663 35.5 31.2989 35.7634 31.7678 36.2322C32.2366 36.7011 32.5 37.337 32.5 38C32.5 39.084 31.8628 39.7493 30.8154 40.7161C29.8462 41.6083 28.75 42.6191 28.75 44.25C28.75 44.5815 28.8817 44.8995 29.1161 45.1339C29.3505 45.3683 29.6685 45.5 30 45.5C30.3315 45.5 30.6495 45.3683 30.8839 45.1339C31.1183 44.8995 31.25 44.5815 31.25 44.25C31.25 43.741 31.7285 43.2734 32.5098 42.5532C33.5596 41.584 35 40.2571 35 38C34.9985 36.6744 34.4712 35.4035 33.5339 34.4661C32.5965 33.5288 31.3256 33.0015 30 33Z" fill="black"/>
<path d="M30 48C29.5055 48 29.0222 48.1466 28.6111 48.4213C28.2 48.696 27.8795 49.0865 27.6903 49.5433C27.5011 50.0001 27.4516 50.5028 27.548 50.9877C27.6445 51.4727 27.8826 51.9181 28.2322 52.2678C28.5819 52.6174 29.0273 52.8555 29.5123 52.952C29.9972 53.0484 30.4999 52.9989 30.9567 52.8097C31.4135 52.6205 31.804 52.3 32.0787 51.8889C32.3534 51.4778 32.5 50.9945 32.5 50.5C32.4993 49.8372 32.2357 49.2017 31.767 48.733C31.2983 48.2643 30.6628 48.0007 30 48Z" fill="black"/>
<path d="M16 3C13.3488 3.00303 10.807 4.05757 8.93228 5.93228C7.05757 7.80699 6.00303 10.3488 6 13C6 13.663 6.26339 14.2989 6.73223 14.7678C7.20107 15.2366 7.83696 15.5 8.5 15.5C9.16304 15.5 9.79893 15.2366 10.2678 14.7678C10.7366 14.2989 11 13.663 11 13C11 11.6739 11.5268 10.4021 12.4645 9.46447C13.4021 8.52678 14.6739 8 16 8C17.3261 8 18.5979 8.52678 19.5355 9.46447C20.4732 10.4021 21 11.6739 21 13C21 15.168 19.7256 16.4985 17.6309 18.4321C15.6924 20.2167 13.5 22.2383 13.5 25.5C13.5 26.163 13.7634 26.7989 14.2322 27.2678C14.7011 27.7366 15.337 28 16 28C16.663 28 17.2989 27.7366 17.7678 27.2678C18.2366 26.7989 18.5 26.163 18.5 25.5C18.5 24.4819 19.457 23.5469 21.0195 22.1065C23.1191 20.168 26 17.5142 26 13C25.997 10.3488 24.9424 7.80699 23.0677 5.93228C21.193 4.05757 18.6512 3.00303 16 3Z" fill="black"/>
<path d="M16 33C15.0111 33 14.0444 33.2932 13.2222 33.8427C12.3999 34.3921 11.759 35.173 11.3806 36.0866C11.0022 37.0002 10.9031 38.0055 11.0961 38.9755C11.289 39.9454 11.7652 40.8363 12.4645 41.5355C13.1637 42.2348 14.0546 42.711 15.0246 42.9039C15.9945 43.0969 16.9998 42.9978 17.9134 42.6194C18.8271 42.241 19.6079 41.6001 20.1574 40.7779C20.7068 39.9556 21 38.9889 21 38C20.9987 36.6743 20.4715 35.4033 19.5341 34.4659C18.5967 33.5285 17.3257 33.0013 16 33Z" fill="black"/>
</svg>
