<?xml version="1.0" encoding="utf-8"?>
<!-- Generator: Adobe Illustrator 25.2.1, SVG Export Plug-In . SVG Version: 6.00 Build 0)  -->
<svg version="1.1" id="_x32_" xmlns="http://www.w3.org/2000/svg" xmlns:xlink="http://www.w3.org/1999/xlink" x="0px" y="0px"
	 viewBox="0 0 800 800" style="enable-background:new 0 0 800 800;" xml:space="preserve">
<style type="text/css">
	.st0{fill:#CF1673;}
</style>
<g>
	<path class="st0" d="M788.4,464.5c-7.4-11.9-17.9-21.7-30.4-28.1c-2.6-1.4-5.5-2.6-8.6-3.8H749c-3.6,0-7.1-1.1-10-3.1
		c-5.5-1.2-11.1-1.8-16.7-1.8c-18,0-34.8,5.9-48.8,17.2c-3.1,2.5-7.1,3.9-11.1,3.9c-5.4,0-10.4-2.4-13.8-6.6c-3-3.7-4.3-8.3-3.8-13
		s2.8-8.9,6.5-11.9c20-16.1,45.2-25,70.9-25c8.2,0,16.4,0.9,24.5,2.7c15.1-11.9,24.6-28.9,27-48.1c0.4-3,0.6-6.1,0.6-9.1
		c0-17.6-6.4-34.6-18.1-48c-11.8-13.4-28-22-45.8-24.2c-2.2-0.3-4.3-0.4-6.5-0.5c-1.6,1.8-3.3,3.6-5,5.3c-7,7-15.5,13.3-26.2,19.4
		c-8.1,4.6-17.2,8.9-27.1,12.8c-17.2,6.8-30.7,10-30.9,10.1c-1.3,0.3-2.7,0.5-4.1,0.5c-8.2,0-15.2-5.5-17.2-13.5
		c-1.1-4.6-0.4-9.3,2.1-13.3c2.4-3.9,6.1-6.7,10.6-7.9l0.3-0.1l3.2,8.3l-2.2-8.6l3.2-0.9c2.8-0.8,6.9-2,11.7-3.6
		c8.6-2.9,21.4-7.9,33-14.4c7.7-4.3,14.1-9,18.6-13.6c2.6-2.6,5.1-5.5,7.5-8.6l1.1-1.4c11-14.6,17.4-32.9,17.4-50.9
		c0-18.6-6.6-35.8-19-49.7c-14.8-16.5-35.9-26-58.1-26c-19.1,0-37.5,7-51.8,19.8c-3.2,2.9-7.4,4.5-11.8,4.5c-5,0-9.8-2.2-13.2-5.9
		c-3.1-3.5-4.7-8-4.5-12.7c0.3-4.7,2.4-9,5.9-12.2c7.6-6.8,16.1-12.6,25.2-17.1c-2.2-16.9-10-32.5-22.1-44.7
		c-14.7-14.7-34.2-22.8-55-22.8s-40.3,8.1-55,22.8s-22.8,34.2-22.8,55v126.9h72.5c9.7,0,17.7,7.9,17.7,17.7
		c0,9.7-7.9,17.7-17.7,17.7h-72.5v87c21,1,38.8,3.8,54.2,8.6c18.3,5.6,33.4,14.3,44.7,25.8c6.7,6.8,12.3,14.7,16.8,23.7
		c5.8,11.7,8.9,23.7,11,32.8c1.1,5,2.1,10,3.1,14.9c1.6,8.2,3.2,16,5.2,22.9c1.9,6.3,4,11.4,6.5,15.6c3.1,5.2,6.9,9,11.9,12.2
		c7.1,4.5,16.4,7.5,28.4,9c4.6,0.6,8.8,3,11.7,6.7s4.1,8.4,3.6,13.1c-1.1,8.8-8.7,15.4-17.5,15.4l-2.3-0.2
		c-14.8-1.9-27.1-5.6-37.6-11.2c-10-5.3-18.4-12.5-24.8-21.4c-3.8-5.1-6.9-10.8-9.6-17.3c-2.8-6.7-5-14-7.2-23.5
		c-1.1-4.9-2.1-9.9-3-14.8c-1-5-2-9.9-3.1-14.7c-3.2-14.1-7.1-23.8-12.4-31.5c-3.6-5.2-8-9.6-13.4-13.4c-7.3-5.1-16.4-9-27.7-12
		c-10.9-2.8-23.8-4.7-38.5-5.5v324c0,20.8,8.1,40.3,22.8,55c14.7,14.7,34.3,22.8,55,22.8c20.8,0,40.3-8.1,55-22.8s22.8-34.3,22.8-55
		c0-11.3-3.1-23.6-8.5-33.9c-6.1-11.8-14.7-20.4-25.4-25.8c-8.3-4.1-17.4-6.1-28-6.2c-9.7,0-17.6-7.9-17.6-17.6
		c0-9.7,7.9-17.7,17.7-17.7c12.1,0,23.5,1.9,34,5.7c9.8,3.5,18.9,8.7,26.9,15.4c14,11.7,24.7,27.8,30.8,46.5
		c3.6,11,5.5,22.6,5.5,33.6c0,8.8-1,17.5-3,26c8.1,2.8,16.8,4.2,25.3,4.2c19,0,37.4-7,51.6-19.7c16.6-14.8,26.1-35.9,26.1-58.2
		c0-9.4-1.7-18.6-5-27.4c-3.3-8.9-8.3-17.1-14.7-24.3c-6.5-7.3-5.8-18.5,1.5-24.9c3.3-2.9,7.4-4.5,11.7-4.5c5,0,9.9,2.2,13.2,5.9
		l1.2,1.4l0.8,0.1c0.5,0.1,0.9,0.1,1.7,0.1c0.7,0,1.7,0,3.1,0c20.8,0,40.3-8.1,55-22.8s22.8-34.3,22.8-55
		C800,490.9,796,476.7,788.4,464.5z"/>
	<path class="st0" d="M304.5,17.9c-20.8,0-40.3,8.1-55,22.8c-12.1,12.1-19.9,27.8-22.1,44.7c9.1,4.5,17.6,10.2,25.2,17.1l1.2,1.2
		l1.3,1.5l2.6,2.8c2.3,2.5,5.8,6.2,9.9,10.3c7.5,7.6,19.1,18.5,31.4,27.6c8.1,6,15.7,10.6,22.1,13.2c4.4,1.8,7.4,2.4,9.2,2.6
		c4.7,0.5,8.9,2.8,11.8,6.5s4.3,8.3,3.8,13c-1,8.9-8.5,15.7-17.5,15.7l-2-0.1c-6-0.7-12.2-2.4-18.9-5.1c-5.5-2.3-11.2-5.3-17.3-9.1
		c-9.6-6-19.9-13.9-30.8-23.5c-15.8-14-28-27.5-31.1-31C214.1,115.8,196,109,177.2,109c-22.2,0-43.3,9.5-58.1,26
		c-12.8,14.3-19.8,32.7-19.8,51.8c0,13,3.2,25.7,9.4,37.1h0.2c5.8,0,11.7,0.4,17.4,1.3c9.6,1.5,16.2,10.5,14.8,20.1
		c-1.4,8.7-8.7,15-17.4,15c-0.9,0-1.8-0.1-2.7-0.2c-3.9-0.6-7.9-0.9-12-0.9c-0.9,0-1.8,0-2.8,0c-20.3,0.7-39.2,9.2-53.3,23.8
		c-14,14.6-21.8,33.7-21.8,53.9c0,0.9,0,1.9,0,2.8c0.7,20.9,9.9,40.5,25.2,54.6c7-1.3,14.2-2,21.3-2c25.8,0,51,8.9,70.9,25l1.8,1.6
		l1.3,1.5c0.6,0.7,1.5,1.6,2.8,2.9c3.5,3.5,7.2,6.9,11.1,10.2c8.7,7.3,22.4,17.3,38.7,23.8c11.1,4.4,22,6.6,32.5,6.6
		c9.7,0,17.7,7.9,17.7,17.7s-7.9,17.7-17.7,17.7c-15,0-30.3-3.1-45.5-9.1c-11.8-4.7-23.7-11.2-35.2-19.3c-16-11.3-27-22.7-30.6-26.7
		c-13.8-10.7-30.3-16.4-47.8-16.4c-12.6,0-24.7,2.9-35.8,8.7c-12.5,6.5-23,16.2-30.4,28.1C4,476.7,0,490.9,0,505.4
		c0,20.8,8.1,40.3,22.8,55s34.3,22.8,55,22.8c2.6,0,3.8,0,4.8-0.1l0.7-0.1l1.3-1.5c3.4-3.8,8.2-5.9,13.2-5.9c4.3,0,8.5,1.6,11.7,4.5
		c3.5,3.1,5.6,7.4,5.9,12.2c0.3,4.7-1.3,9.2-4.4,12.8c-6.4,7.2-11.3,15.4-14.7,24.3c-3.3,8.8-5,18-5,27.4c0,22.2,9.5,43.4,26.1,58.2
		c14.3,12.7,32.6,19.7,51.7,19.7c8.5,0,17.1-1.5,25.3-4.2c-2-8.5-3-17.2-3-26c0-14.1,3-28.6,8.6-42c6.3-15.1,15.9-28.3,27.6-38.1
		c3.2-2.6,7.2-4.1,11.3-4.1c5.3,0,10.2,2.3,13.6,6.3c6.2,7.5,5.2,18.6-2.2,24.9c-7.4,6.2-13.6,14.7-17.7,24.6
		c-3.8,9-5.9,19.1-5.9,28.3c0,20.8,8.1,40.3,22.8,55s34.2,22.8,55,22.8c20.8,0,40.3-8.1,55-22.8s22.8-34.3,22.8-55V562.8h-65.9
		c-9.7,0-17.6-7.9-17.6-17.6c0-9.7,7.9-17.7,17.6-17.7h65.9V420.2c-7.5-3.5-15.7-5.3-24-5.3c-5.8,0-11.6,0.9-17.3,2.6
		c-14.8,5.1-29.6,7.7-44,7.7c-27.3,0-52.1-9.7-70.1-27.3c-17.1-16.7-26.9-39.7-26.9-63.2c0-20.8,7.4-40.8,21.5-57.6
		c3.4-4,8.3-6.3,13.5-6.3c4.1,0,8.1,1.5,11.3,4.1c7.5,6.2,8.5,17.4,2.2,24.9c-8.8,10.6-13.3,22.4-13.3,35c0,14,5.9,27.8,16.3,37.9
		c11.6,11.2,27.3,17.2,45.4,17.2c10.4,0,21.5-2,32.9-6c9.6-3,18.9-4.4,28.3-4.4c8.1,0,16.1,1.1,23.9,3.2v-287
		c0-20.8-8.1-40.3-22.8-55C344.9,26,325.3,17.9,304.5,17.9z"/>
</g>
</svg>
