<svg width="25" height="29" viewBox="0 0 25 29" fill="none" xmlns="http://www.w3.org/2000/svg">
<path fill-rule="evenodd" clip-rule="evenodd" d="M0.00359432 8.08958C0.0037506 7.42411 0.482425 6.60719 1.07471 6.2636L11.4291 0.257199C12.0206 -0.0859336 12.9786 -0.0859337 13.5712 0.258405L23.9292 6.27626C24.5209 6.61985 25.0002 7.43707 25 8.1054L24.9956 20.1012C24.9955 20.7677 24.516 21.5878 23.9254 21.9327L13.5487 27.9914C12.9578 28.3365 12.0011 28.3364 11.4093 27.9899L1.06893 21.9342C0.478206 21.5884 -0.0003124 20.7689 1.53025e-07 20.1031L0.00359432 8.08958ZM2.18146 7.11398L12.4698 12.6534L22.2786 7.18646L12.4532 1.6231L2.18146 7.11398ZM1.51791 8.90679C1.51791 9.15213 1.35148 19.7357 1.35148 19.7357C1.34616 20.0682 1.58074 20.4767 1.87766 20.6496L11.5062 26.2527L11.5948 14.5869C11.5948 14.5869 1.51791 8.66131 1.51791 8.90679ZM13.4116 26.2274L22.9307 20.4015C23.2952 20.1785 23.5907 19.6608 23.5907 19.2443V8.84727L13.4116 14.5003V26.2274Z" fill="#F1DAFF"/>
<path fill-rule="evenodd" clip-rule="evenodd" d="M4.67077 14.7489C3.92345 15.1651 2.93266 14.8597 2.45789 14.0668C1.98328 13.274 2.20441 12.2939 2.95173 11.8778C3.6992 11.4616 4.68999 11.7671 5.1646 12.5599C5.63937 13.3527 5.41824 14.3328 4.67077 14.7489ZM9.67161 17.9135C8.9243 18.3297 7.93351 18.0243 7.45874 17.2314C6.98413 16.4386 7.20526 15.4585 7.95257 15.0424C8.70004 14.6262 9.69083 14.9317 10.1654 15.7245C10.6402 16.5173 10.4191 17.4974 9.67161 17.9135ZM4.67077 20.3246C3.92345 20.7408 2.93266 20.4354 2.45789 19.6426C1.98328 18.8498 2.20441 17.8696 2.95173 17.4536C3.6992 17.0373 4.68999 17.3428 5.1646 18.1356C5.63937 18.9284 5.41824 19.9085 4.67077 20.3246ZM9.67161 23.4892C8.9243 23.9054 7.93351 23.6 7.45874 22.8072C6.98413 22.0144 7.20526 21.0342 7.95257 20.6182C8.70004 20.2019 9.69083 20.5074 10.1654 21.3002C10.6402 22.093 10.4191 23.0731 9.67161 23.4892ZM21.8984 11.7272C21.1509 11.3109 20.1603 11.6164 19.6855 12.4092C19.2109 13.202 19.4319 14.1821 20.1793 14.5982C20.9268 15.0144 21.9176 14.709 22.3922 13.9162C22.867 13.1233 22.6458 12.1432 21.8984 11.7272ZM19.3607 16.0973C18.6134 15.6811 17.6226 15.9866 17.1479 16.7794C16.6733 17.5722 16.8944 18.5523 17.6417 18.9684C18.3892 19.3846 19.38 19.0791 19.8546 18.2863C20.3293 17.4935 20.1082 16.5134 19.3607 16.0973ZM16.704 20.3168C15.9567 19.9006 14.9659 20.206 14.4912 20.9988C14.0166 21.7916 14.2377 22.7717 14.985 23.1878C15.7325 23.604 16.7233 23.2986 17.1979 22.5058C17.6726 21.713 17.4515 20.7328 16.704 20.3168ZM12.6002 5.21185C11.6077 5.21185 10.8031 5.95403 10.8031 6.8695C10.8031 7.78497 11.6077 8.52714 12.6002 8.52714C13.5927 8.52714 14.3974 7.78497 14.3974 6.8695C14.3974 5.95403 13.5927 5.21185 12.6002 5.21185Z" fill="#F1DAFF"/>
</svg>
