<?xml version="1.0" encoding="utf-8"?>
<!-- Generator: Adobe Illustrator 25.2.1, SVG Export Plug-In . SVG Version: 6.00 Build 0)  -->
<svg version="1.1" id="Capa_1" xmlns="http://www.w3.org/2000/svg" xmlns:xlink="http://www.w3.org/1999/xlink" x="0px" y="0px"
	 viewBox="0 0 800 800" style="enable-background:new 0 0 800 800;" xml:space="preserve">
<style type="text/css">
	
		.st0{opacity:0.1;fill-rule:evenodd;clip-rule:evenodd;fill:#2BCCC6;stroke:#2BCCC6;stroke-miterlimit:10;enable-background:new    ;}
	.st1{fill:none;stroke:#2BCCC6;stroke-width:66.6667;stroke-miterlimit:133.3333;}
	.st2{fill:none;stroke:#2BCCC6;stroke-width:66.6667;stroke-linecap:round;stroke-linejoin:round;stroke-miterlimit:133.3333;}
</style>
<path class="st0" d="M400,700c165.7,0,300-134.3,300-300c0-165.7-134.3-300-300-300c-165.7,0-300,134.3-300,300
	C100,565.7,234.3,700,400,700z M507.5,433.9c26.2-15,26.2-52.8,0-67.8l-148.1-84.6c-22.8-13-51.1,3.4-51.1,29.6v177.8
	c0,26.2,28.3,42.6,51.1,29.6L507.5,433.9z"/>
<path class="st1" d="M700,400c0,165.7-134.3,300-300,300c-165.7,0-300-134.3-300-300c0-165.7,134.3-300,300-300
	C565.7,100,700,234.3,700,400z"/>
<path class="st2" d="M363.3,293.3l-8.1-4.6c-17.2-9.8-38.6,2.6-38.6,22.4v177.8c0,19.8,21.4,32.2,38.6,22.4l8.1-4.6l140-80
	c20.6-11.8,20.6-41.5,0-53.3L363.3,293.3z"/>
</svg>
