<?xml version="1.0" encoding="utf-8"?>
<!-- Generator: Adobe Illustrator 25.2.1, SVG Export Plug-In . SVG Version: 6.00 Build 0)  -->
<svg version="1.1" id="Capa_1" xmlns="http://www.w3.org/2000/svg" xmlns:xlink="http://www.w3.org/1999/xlink" x="0px" y="0px"
	 viewBox="0 0 800 800" style="enable-background:new 0 0 800 800;" xml:space="preserve">
<style type="text/css">
	.st0{fill:#FFFFFF;}
</style>
<path class="st0" d="M400,12.5C185.9,12.5,12.5,185.9,12.5,400S185.9,787.5,400,787.5S787.5,614.1,787.5,400S614.1,12.5,400,12.5z
	 M400,162.5c75.9,0,137.5,61.6,137.5,137.5S475.9,437.5,400,437.5S262.5,375.9,262.5,300S324.1,162.5,400,162.5z M400,700
	c-91.7,0-173.9-41.6-228.9-106.6C200.5,538.1,258,500,325,500c3.8,0,7.5,0.6,11.1,1.7c20.3,6.6,41.6,10.8,63.9,10.8
	s43.8-4.2,63.9-10.8c3.6-1.1,7.3-1.7,11.1-1.7c67,0,124.5,38.1,153.9,93.4C573.9,658.4,491.7,700,400,700z"/>
</svg>
