<svg width="48" height="48" viewBox="0 0 48 48" fill="none" xmlns="http://www.w3.org/2000/svg">
<path d="M14.1963 27.6727H0V46.7364H14.1963V27.6727Z" fill="#AF63EE"/>
<path d="M48 22.7744H33.8037V46.7363H48V22.7744Z" fill="#AF63EE"/>
<path d="M31.1013 15.666H16.9009V46.7364H31.1013V15.666Z" fill="#AF63EE"/>
<path d="M41.0112 8.33093L43.0216 12.4094L47.5244 13.0643L44.2699 16.2386L45.0361 20.7228L41.0112 18.6053L36.9864 20.7228L37.7526 16.2386L34.498 13.0643L38.9967 12.4093L41.0112 8.33093Z" fill="#AF63EE"/>
<path d="M24.0771 1.26373L26.0896 5.34426L30.5924 5.99933L27.3379 9.17556L28.1062 13.6556L24.0792 11.5402L20.0523 13.6556L20.8185 9.17556L17.564 5.99933L22.0647 5.34426L24.0771 1.26373Z" fill="#AF63EE"/>
<path d="M6.85097 13.0871L8.86134 17.1676L13.3641 17.8247L10.1117 20.9968L10.8779 25.479L6.85097 23.3635L2.824 25.4811L3.59233 20.9989L0.337891 17.8267L4.83858 17.1696L6.85097 13.0871Z" fill="#AF63EE"/>
</svg>
