<svg width="209" height="206" viewBox="0 0 209 206" fill="none" xmlns="http://www.w3.org/2000/svg">
<path d="M169.507 96.0167C167.913 93.4507 165.656 91.3577 162.974 89.9685C162.407 89.6695 161.788 89.3994 161.127 89.1535H161.033C160.251 89.1535 159.504 88.9173 158.875 88.4806C157.697 88.2226 156.489 88.0922 155.276 88.0922C151.413 88.0922 147.789 89.3702 144.791 91.7867C144.118 92.3293 143.274 92.6283 142.411 92.6283C141.256 92.6283 140.178 92.1146 139.454 91.2173C138.818 90.4288 138.526 89.4401 138.634 88.4319C138.74 87.4213 139.235 86.5169 140.023 85.878C144.321 82.4102 149.735 80.5004 155.269 80.5004C157.035 80.5004 158.8 80.6932 160.531 81.0792C163.772 78.5132 165.822 74.8741 166.333 70.7456C166.415 70.0945 166.456 69.4384 166.456 68.7897C166.456 65.0085 165.072 61.343 162.557 58.478C160.022 55.5938 156.528 53.7417 152.715 53.2687C152.252 53.2109 151.785 53.1726 151.319 53.1578C150.976 53.5462 150.62 53.9295 150.251 54.301C148.755 55.8058 146.913 57.1708 144.615 58.4803C142.884 59.462 140.92 60.3878 138.781 61.2321C135.075 62.6911 132.171 63.3879 132.143 63.3929C131.863 63.4605 131.564 63.4944 131.265 63.4944C129.507 63.4944 127.992 62.3031 127.575 60.5955C127.336 59.6071 127.498 58.5892 128.026 57.7258C128.54 56.8795 129.343 56.2815 130.298 56.0305L130.372 56.0137L131.062 57.8057L130.587 55.956L131.27 55.7702C131.882 55.5965 132.75 55.3338 133.778 54.9867C135.634 54.3524 138.371 53.2986 140.865 51.8805C142.51 50.9472 143.892 49.9367 144.856 48.9628C145.409 48.4031 145.949 47.7859 146.465 47.1227L146.711 46.8187C149.081 43.6863 150.453 39.7482 150.451 35.8727C150.446 31.8695 149.033 28.1726 146.363 25.1773C143.192 21.6276 138.642 19.5897 133.876 19.5897C129.764 19.5897 125.809 21.0991 122.742 23.8388C122.045 24.461 121.148 24.8034 120.214 24.8034C119.132 24.8034 118.099 24.3404 117.381 23.5328C116.708 22.7779 116.368 21.8036 116.423 20.7931C116.481 19.7802 116.93 18.8516 117.685 18.1763C119.329 16.7079 121.15 15.4776 123.11 14.5084C122.628 10.8838 120.969 7.51252 118.36 4.90317C115.198 1.74152 110.997 0.00262607 106.531 0.000610352C102.062 0.00262607 97.8612 1.74152 94.6999 4.90317C91.5406 8.06248 89.802 12.2659 89.7997 16.7317V44.0068H105.388C107.481 44.0068 109.183 45.7117 109.183 47.8024C109.183 49.8954 107.481 51.5983 105.388 51.5983H89.7997V70.3243C94.3212 70.5363 98.1461 71.142 101.452 72.1643C105.395 73.3771 108.634 75.244 111.072 77.7062C112.512 79.1602 113.727 80.8773 114.687 82.8094C115.934 85.334 116.602 87.9048 117.045 89.863C117.289 90.9485 117.501 92.0212 117.706 93.068C118.058 94.8405 118.389 96.5142 118.828 97.9971C119.23 99.3621 119.688 100.457 120.234 101.347C120.907 102.456 121.719 103.29 122.785 103.98C124.302 104.95 126.303 105.586 128.901 105.924C129.899 106.049 130.794 106.561 131.416 107.361C132.038 108.167 132.308 109.165 132.18 110.168C131.935 112.059 130.316 113.482 128.418 113.482L127.926 113.448C124.75 113.04 122.11 112.254 119.85 111.049C117.699 109.905 115.902 108.352 114.513 106.44C113.703 105.335 113.028 104.113 112.447 102.712C111.846 101.265 111.371 99.7044 110.903 97.6521C110.664 96.5912 110.457 95.5299 110.249 94.4784C110.037 93.4077 109.827 92.3444 109.586 91.3073C108.892 88.2736 108.069 86.1874 106.916 84.5429C106.135 83.4215 105.192 82.4808 104.03 81.6681C102.453 80.5686 100.506 79.727 98.0806 79.0951C95.739 78.485 92.961 78.0892 89.7993 77.9229V147.581C89.8017 152.048 91.5406 156.251 94.6972 159.413C97.8612 162.572 102.062 164.311 106.531 164.313C110.997 164.311 115.198 162.572 118.36 159.413C121.519 156.249 123.26 152.048 123.26 147.581C123.262 145.163 122.599 142.508 121.437 140.296C120.115 137.766 118.275 135.9 115.972 134.742C114.192 133.855 112.222 133.421 109.948 133.416C107.857 133.416 106.155 131.715 106.155 129.625C106.155 127.529 107.857 125.826 109.95 125.826C112.543 125.826 115.003 126.239 117.262 127.054C119.377 127.814 121.326 128.93 123.052 130.368C126.067 132.888 128.356 136.343 129.672 140.361C130.444 142.722 130.849 145.218 130.849 147.581C130.851 149.467 130.634 151.338 130.205 153.166C131.956 153.764 133.811 154.078 135.643 154.078C139.738 154.075 143.684 152.573 146.746 149.848C150.311 146.676 152.356 142.119 152.358 137.342C152.358 135.318 151.996 133.336 151.29 131.448C150.571 129.535 149.505 127.777 148.128 126.227C146.739 124.661 146.881 122.259 148.442 120.868C149.141 120.248 150.036 119.911 150.964 119.911C152.049 119.911 153.084 120.374 153.805 121.186L154.068 121.488L154.241 121.517C154.36 121.534 154.434 121.541 154.61 121.548C154.765 121.55 154.979 121.553 155.276 121.553C159.742 121.55 163.945 119.812 167.107 116.653C170.266 113.489 172.005 109.288 172.008 104.821C172.006 101.698 171.14 98.6526 169.507 96.0167Z" fill="#049C96"/>
<path d="M65.4789 0C61.0101 0.00201572 56.8093 1.74091 53.6477 4.90256C51.0383 7.51191 49.3791 10.8859 48.897 14.5054C50.8529 15.475 52.6734 16.7022 54.3206 18.1734L54.5883 18.4364L54.8658 18.7546L55.4228 19.367C55.9268 19.9119 56.6598 20.6934 57.5568 21.5904C59.1798 23.2207 61.6662 25.5697 64.3021 27.5156C66.0504 28.8083 67.6878 29.7873 69.0431 30.3493C69.9837 30.74 70.6395 30.8724 71.0252 30.9161C72.0357 31.0293 72.9401 31.5285 73.5717 32.3194C74.206 33.1105 74.4929 34.1016 74.3793 35.1098C74.1647 37.0341 72.5444 38.4861 70.6103 38.4861L70.1907 38.4623C68.8932 38.3175 67.5669 37.9556 66.1344 37.36C64.9431 36.8655 63.7276 36.2292 62.413 35.4115C60.3513 34.1261 58.1253 32.4282 55.7981 30.3688C52.3909 27.3496 49.7839 24.4604 49.1133 23.7032C46.0629 21.0481 42.1678 19.5867 38.1287 19.5867C33.3655 19.5891 28.815 21.6246 25.6463 25.1743C22.9043 28.2395 21.3972 32.1967 21.3948 36.3085C21.3948 39.1009 22.0916 41.8359 23.4179 44.2837H23.4636C24.7154 44.2837 25.9742 44.3777 27.2018 44.5682C29.2733 44.8914 30.6937 46.8325 30.3752 48.8993C30.0833 50.7635 28.5086 52.1164 26.6276 52.1164C26.4348 52.1164 26.2369 52.1016 26.0394 52.0727C25.2002 51.9404 24.3317 51.8752 23.4636 51.8752C23.2634 51.8752 23.0659 51.8775 22.8629 51.8822C18.5077 52.0391 14.4369 53.8549 11.408 56.9971C8.38875 60.1322 6.72712 64.251 6.72712 68.5919C6.72712 68.7921 6.72948 68.9947 6.73452 69.1973C6.89342 73.6805 8.85908 77.9105 12.1605 80.9368C13.675 80.6475 15.2086 80.5004 16.7305 80.5004C22.2723 80.5004 27.6862 82.4103 31.9814 85.878L32.3577 86.2207L32.6449 86.5439C32.7752 86.686 32.9751 86.8956 33.2382 87.1613C33.9833 87.9135 34.7889 88.6516 35.6305 89.3581C37.4947 90.921 40.4487 93.0744 43.9531 94.466C46.3427 95.4137 48.694 95.8938 50.9396 95.8938C53.0325 95.8938 54.7351 97.596 54.7351 99.6894C54.7351 101.783 53.0325 103.485 50.9396 103.485C47.7198 103.483 44.4281 102.822 41.1532 101.52C38.6064 100.507 36.0622 99.1082 33.5883 97.3599C30.1518 94.9269 27.7931 92.4838 27.0022 91.6178C24.0435 89.3124 20.4958 88.0923 16.7315 88.0923C14.0187 88.0923 11.4285 88.7218 9.03378 89.9686C6.35455 91.3577 4.09493 93.4507 2.50083 96.0167C0.868103 98.6526 0.00268762 101.698 0 104.824C0.00268762 109.288 1.74124 113.489 4.90021 116.652C8.06187 119.812 12.265 121.55 16.7315 121.553C17.2838 121.553 17.5492 121.55 17.7709 121.526L17.9204 121.507L18.2026 121.186C18.9236 120.373 19.9583 119.91 21.0434 119.91C21.972 119.91 22.8666 120.248 23.5634 120.868C24.3207 121.54 24.7718 122.469 24.832 123.484C24.8898 124.495 24.5521 125.469 23.8772 126.226C22.5025 127.777 21.4368 129.537 20.7179 131.45C20.009 133.338 19.6496 135.318 19.6496 137.341C19.6516 142.116 21.6969 146.674 25.2586 149.847C28.3239 152.572 32.2693 154.075 36.3639 154.077C38.1969 154.077 40.0513 153.764 41.802 153.166C41.3726 151.343 41.1579 149.472 41.1579 147.581C41.1579 144.559 41.7996 141.441 43.01 138.554C44.3703 135.308 46.4247 132.479 48.9524 130.372C49.6347 129.803 50.4981 129.489 51.383 129.489C52.5145 129.489 53.5751 129.986 54.2987 130.854C55.6348 132.461 55.4202 134.858 53.8167 136.199C52.2175 137.53 50.9009 139.358 50.0063 141.492C49.1936 143.428 48.7451 145.592 48.7475 147.581C48.7475 152.048 50.4884 156.248 53.6477 159.413C56.8093 162.572 61.0104 164.311 65.4789 164.313C69.9451 164.311 74.1485 162.572 77.3102 159.413C80.4668 156.251 82.2057 152.048 82.208 147.581V117.164H68.0423C65.9516 117.164 64.249 115.464 64.249 113.371C64.249 111.278 65.9516 109.575 68.0423 109.575H82.208V86.5056C80.5968 85.7631 78.8364 85.3721 77.0565 85.37C75.8075 85.37 74.5584 85.5629 73.3453 85.9391C70.1715 87.0364 66.9716 87.6055 63.8919 87.6055C58.0295 87.6055 52.6879 85.5219 48.8197 81.7404C45.1417 78.1521 43.0292 73.2035 43.0272 68.1608C43.0248 63.6779 44.6233 59.3925 47.6573 55.7679C48.3806 54.8994 49.4419 54.4052 50.5703 54.4052C51.4579 54.4052 52.3213 54.719 53.0013 55.2878C54.6075 56.6313 54.8222 59.0259 53.4837 60.6321C51.5883 62.9086 50.6238 65.443 50.6214 68.1635C50.6214 71.1659 51.897 74.1368 54.1227 76.3097C56.6114 78.7286 59.9901 80.0092 63.8946 80.0139C66.1374 80.0139 68.5173 79.5822 70.965 78.7336C73.0221 78.0872 75.0334 77.7809 77.0592 77.7809C78.8075 77.7809 80.5296 78.0076 82.208 78.4635V16.7315C82.2054 12.2653 80.4668 8.06187 77.3102 4.9029C74.1485 1.74091 69.9451 0.00235167 65.4789 0Z" fill="#049C96"/>
<path d="M185.441 189.321L152.253 156.133L151.937 155.816L151.587 156.096C148.971 158.188 145.959 159.848 142.546 161.074C139.143 162.295 135.518 162.908 131.668 162.908C122.125 162.908 114.068 159.608 107.464 153.005C100.861 146.401 97.5616 138.344 97.5616 128.801C97.5616 119.259 100.861 111.201 107.464 104.598C114.068 97.994 122.125 94.6948 131.668 94.6948C141.211 94.6948 149.268 97.994 155.872 104.598C162.475 111.201 165.774 119.259 165.774 128.801C165.774 132.651 165.162 136.276 163.94 139.68C162.715 143.092 161.055 146.105 158.963 148.72L158.683 149.07L159 149.386L192.188 182.574L185.441 189.321ZM131.668 153.259C138.454 153.259 144.239 150.879 148.992 146.125C153.745 141.372 156.126 135.587 156.126 128.801C156.126 122.015 153.745 116.231 148.992 111.477C144.239 106.724 138.454 104.343 131.668 104.343C124.882 104.343 119.097 106.724 114.344 111.477C109.591 116.231 107.21 122.015 107.21 128.801C107.21 135.587 109.591 141.372 114.344 146.125C119.097 150.879 124.882 153.259 131.668 153.259Z" fill="#AF63EE" stroke="white"/>
</svg>