<?xml version="1.0" encoding="utf-8"?>
<!-- Generator: Adobe Illustrator 25.2.1, SVG Export Plug-In . SVG Version: 6.00 Build 0)  -->
<svg version="1.1" id="Capa_1" xmlns="http://www.w3.org/2000/svg" xmlns:xlink="http://www.w3.org/1999/xlink" x="0px" y="0px"
	 viewBox="0 0 800 800" style="enable-background:new 0 0 800 800;" xml:space="preserve">
<style type="text/css">
	.st0{fill:#AF63EE;}
</style>
<path class="st0" d="M633.3,300c0,128.9-104.5,233.3-233.3,233.3c-128.9,0-233.3-104.5-233.3-233.3c0-128.9,104.5-233.3,233.3-233.3
	C528.9,66.7,633.3,171.1,633.3,300z"/>
<path class="st0" d="M236.4,531.4l-12.6,46.1c-20.9,76.4-31.4,114.6-17.4,135.5c4.9,7.3,11.5,13.2,19.1,17.1
	c21.8,11.1,55.3-6.4,122.5-41.4c22.4-11.6,33.5-17.5,45.4-18.7c4.4-0.5,8.8-0.5,13.2,0c11.9,1.3,23.1,7.1,45.4,18.7
	c67.2,35,100.8,52.5,122.5,41.4c7.6-3.9,14.2-9.8,19.1-17.1c14-20.9,3.5-59.1-17.4-135.5l-12.6-46.1c-46.2,32.7-102.6,52-163.6,52
	S282.6,564.1,236.4,531.4z"/>
</svg>
